<?xml version="1.0" encoding="utf-8"?>
<!-- Uploaded to: SVG Repo, www.svgrepo.com, Generator: SVG Repo Mixer Tools -->
<svg width="800px" height="800px" viewBox="0 0 16 13" xmlns="http://www.w3.org/2000/svg" fill="#F9F4F430"
  stroke="#E9E4E420" class="bi bi-people-fill">
  <g id="SVGRepo_bgCarrier" stroke-width="0">
    <rect x="-15.6" y="-15.6" width="87.20" height="87.20" rx="33.6" fill="#1a1a1a" strokewidth="0"></rect>
  </g>
    <path d="M7 14s-1 0-1-1 1-4 5-4 5 3 5 4-1 1-1 1H7zm4-6a3 3 0 1 0 0-6 3 3 0 0 0 0 6z" />
    <path fill-rule="evenodd"
      d="M5.216 14A2.238 2.238 0 0 1 5 13c0-1.355.68-2.75 1.936-3.72A6.325 6.325 0 0 0 5 9c-4 0-5 3-5 4s1 1 1 1h4.216z" />
    <path d="M4.5 8a2.5 2.5 0 1 0 0-5 2.5 2.5 0 0 0 0 5z" />
</svg>