<?xml version="1.0" encoding="utf-8"?>
<!-- Generator: Adobe Illustrator 27.5.0, SVG Export Plug-In . SVG Version: 6.00 Build 0)  -->
<svg version="1.1" xmlns="http://www.w3.org/2000/svg" xmlns:xlink="http://www.w3.org/1999/xlink" x="0px" y="0px"
	 viewBox="0 0 750 500" style="enable-background:new 0 0 750 500;" xml:space="preserve">
<g id="BACKGROUND">
	<g>
		<linearGradient id="SVGID_1_" gradientUnits="userSpaceOnUse" x1="375" y1="224.6472" x2="375" y2="784.1222">
			<stop  offset="0" style="stop-color:#00000000"/>
			<stop  offset="1" style="stop-color:#4FC3F7"/>
		</linearGradient>
		<rect y="-0.004" style="fill:url(#SVGID_1_);" width="750" height="500"/>
	</g>
</g>
<g id="OBJECTS">
	<g>
		<defs>
			<rect id="SVGID_00000116924428985738302620000003065114466710895238_" width="750" height="500"/>
		</defs>
		<clipPath id="SVGID_00000063606024769866727620000008557405489703357878_">
			<use xlink:href="#SVGID_00000116924428985738302620000003065114466710895238_"  style="overflow:visible;"/>
		</clipPath>
		<g style="clip-path:url(#SVGID_00000063606024769866727620000008557405489703357878_);">
			<g>
				<g>
					<g>
						<path style="fill:#D12A42;" d="M545.169,408.057l-26.35-9.368c-7.164-2.547-15.036,1.196-17.583,8.36l-9.368,26.35
							c-2.547,7.164,1.196,15.036,8.36,17.583l8.925,3.173l0.319,12.57l8.182-9.547l8.925,3.173
							c7.164,2.547,15.036-1.196,17.583-8.36l9.368-26.35C556.076,418.476,552.333,410.603,545.169,408.057z"/>
						<path style="fill:#00000000;" d="M533.296,421.412c-4.739-2.525-7.984,0.755-7.984,0.755s-0.594-4.645-5.715-5.626
							c-5.923-1.134-8.294,5.328-8.246,9.619c0.072,6.545,7.567,13.994,7.567,13.994l0.001-0.004l-0.001,0.004
							c0,0,10.516-1.047,14.703-6.077C536.365,430.78,538.618,424.248,533.296,421.412z"/>
					</g>
					<g>
						<path style="fill:#D12A42;" d="M219.954,413.856l-11.156,5.207c-3.033,1.416-4.344,5.022-2.928,8.055l5.207,11.156
							c1.416,3.033,5.022,4.344,8.055,2.928l3.778-1.764l3.985,3.842l-0.386-5.522l3.778-1.764c3.033-1.416,4.344-5.022,2.928-8.055
							l-5.207-11.155C226.593,413.752,222.987,412.441,219.954,413.856z"/>
						<path style="fill:#00000000;" d="M220.359,421.712c-2.266,0.673-2.269,2.704-2.269,2.704s-1.622-1.272-3.53,0.003
							c-2.207,1.475-0.953,4.233,0.388,5.564c2.045,2.03,6.697,2.049,6.697,2.049l-0.001-0.002l0.001,0.002
							c0,0,2.973-3.578,2.731-6.449C224.216,423.701,222.904,420.957,220.359,421.712z"/>
					</g>
					<g>
						<path style="fill:#D12A42;" d="M201.203,450.27l-25.828,10.723c-7.022,2.915-10.351,10.971-7.436,17.994l10.723,25.828
							c2.915,7.022,10.971,10.351,17.994,7.436l8.748-3.632l8.667,9.11l-0.334-12.569l8.748-3.632
							c7.022-2.915,10.351-10.971,7.436-17.994l-10.723-25.828C216.281,450.683,208.225,447.354,201.203,450.27z"/>
						<path style="fill:#00000000;" d="M201.352,468.139c-5.208,1.305-5.415,5.915-5.415,5.915s-3.556-3.047-8.012-0.34
							c-5.154,3.131-2.579,9.514,0.334,12.666c4.443,4.806,14.998,5.306,14.998,5.306l-0.001-0.004l0.001,0.004
							c0,0,7.098-7.829,6.83-14.368C209.911,473.029,207.201,466.673,201.352,468.139z"/>
					</g>
					<g>
						<path style="fill:#D12A42;" d="M92.184,467.595l-24.916-0.438c-6.774-0.119-12.362,5.276-12.481,12.05l-0.438,24.915
							c-0.119,6.774,5.276,12.362,12.05,12.481l8.439,0.148l3.835,10.527l4.203-10.386l8.439,0.148
							c6.774,0.119,12.362-5.276,12.481-12.05l0.438-24.915C104.353,473.302,98.958,467.715,92.184,467.595z"/>
						<path style="fill:#00000000;" d="M85.943,482.245c-4.719-0.788-6.53,2.903-6.53,2.903s-1.819-3.755-6.423-3.131
							c-5.325,0.722-5.494,6.853-4.237,10.464c1.917,5.508,10.361,9.675,10.361,9.675l0-0.004l0,0.004c0,0,8.586-3.867,10.695-9.304
							C91.193,489.287,91.243,483.13,85.943,482.245z"/>
					</g>
					<g>
						<path style="fill:#D12A42;" d="M352.601,472.934l-27.072-7.014c-7.36-1.907-14.873,2.514-16.78,9.874l-7.014,27.072
							c-1.907,7.36,2.514,14.873,9.874,16.78l9.169,2.376l1.423,12.493l7.311-10.23l9.169,2.376
							c7.36,1.907,14.873-2.514,16.78-9.874l7.014-27.072C364.382,482.354,359.961,474.841,352.601,472.934z"/>
						<path style="fill:#00000000;" d="M341.948,487.283c-4.942-2.098-7.886,1.455-7.886,1.455s-1-4.575-6.188-5.101
							c-6-0.609-7.793,6.036-7.369,10.307c0.647,6.513,8.768,13.275,8.768,13.275l0.001-0.004l-0.001,0.004
							c0,0,10.383-1.967,14.111-7.347C345.829,496.344,347.498,489.639,341.948,487.283z"/>
					</g>
					<g>
						<path style="fill:#156B96;" d="M60.887,430.173l-20.285,2.955c-5.515,0.803-9.334,5.925-8.531,11.44l2.955,20.284
							c0.803,5.515,5.925,9.334,11.44,8.531l6.87-1.001l4.512,8.036l2.032-8.99l6.87-1.001c5.515-0.803,9.334-5.925,8.531-11.44
							l-2.955-20.284C71.524,433.189,66.401,429.37,60.887,430.173z"/>
						<g>
							<path style="fill:#00000000;" d="M62.887,453.375c0.63-0.419,1.001-1.171,0.885-1.969c-0.137-0.939-0.901-1.627-1.805-1.713
								c0.532-0.474,0.804-1.218,0.623-1.98c-0.246-1.034-1.305-1.664-2.356-1.511l-7.631,1.112c0,0,0.507-5.507-0.595-7.073
								s-2.23-0.862-2.23-0.862s1.033,1.996-1.368,7.872c-0.489,1.196-1.322,2.579-1.136,3.858l1.135,7.789
								c0.294,2.021,2.171,3.42,4.192,3.126l6.721-0.979l2.309-0.336l0.058-0.008c1.112-0.162,2.002-1.219,1.827-2.329
								c-0.072-0.459-0.299-0.851-0.613-1.148c0.93-0.291,1.541-1.216,1.396-2.212C64.18,454.211,63.61,453.596,62.887,453.375z"/>
							<path style="fill:#00000000;" d="M46.601,461.597L46.601,461.597c-0.889,0.129-1.714-0.486-1.843-1.374l-1.263-8.667
								c-0.13-0.889,0.486-1.714,1.374-1.843l0,0c0.889-0.13,1.714,0.486,1.843,1.374l1.263,8.667
								C48.104,460.642,47.489,461.467,46.601,461.597z"/>
						</g>
					</g>
					<g>
						<path style="fill:#156B96;" d="M475.101,434.928l-16.537-12.113c-4.496-3.293-10.811-2.318-14.104,2.178l-12.113,16.537
							c-3.293,4.496-2.318,10.81,2.177,14.104l5.601,4.103l-2.416,8.894l7.751-4.986l5.601,4.103
							c4.496,3.293,10.811,2.318,14.104-2.177l12.113-16.537C480.572,444.536,479.597,438.221,475.101,434.928z"/>
						<g>
							<path style="fill:#00000000;" d="M460.262,452.875c0.743,0.143,1.534-0.133,2.011-0.784c0.561-0.766,0.498-1.791-0.086-2.487
								c0.712,0.035,1.427-0.305,1.833-0.975c0.549-0.91,0.236-2.101-0.621-2.729l-6.221-4.557c0,0,4.223-3.571,4.534-5.461
								c0.312-1.89-0.986-2.178-0.986-2.178s-0.663,2.147-6.494,4.654c-1.187,0.51-2.751,0.912-3.515,1.954l-4.651,6.35
								c-1.207,1.647-0.849,3.961,0.798,5.168l5.479,4.014l1.882,1.379l0.047,0.035c0.907,0.664,2.282,0.534,2.936-0.38
								c0.27-0.378,0.384-0.817,0.367-1.249c0.867,0.445,1.952,0.213,2.546-0.598C460.598,454.379,460.622,453.54,460.262,452.875z"
								/>
							<path style="fill:#00000000;" d="M442.884,447.321L442.884,447.321c-0.724-0.531-0.882-1.548-0.351-2.272l5.176-7.066
								c0.531-0.724,1.548-0.881,2.272-0.351l0,0c0.724,0.531,0.881,1.548,0.351,2.272l-5.176,7.066
								C444.626,447.695,443.608,447.852,442.884,447.321z"/>
						</g>
					</g>
					<g>
						<path style="fill:#D12A42;" d="M156.417,406.084l-18.263-9.308c-4.965-2.531-11.042-0.557-13.573,4.408l-9.308,18.263
							c-2.531,4.965-0.557,11.042,4.408,13.573l6.186,3.153l-0.96,9.166l6.853-6.163l6.186,3.153
							c4.965,2.531,11.042,0.557,13.573-4.408l9.308-18.263C163.356,414.691,161.382,408.615,156.417,406.084z"/>
						<path style="fill:#00000000;" d="M146.52,414.665c-3.205-2.284-5.875-0.208-5.875-0.208s0.009-3.432-3.62-4.631
							c-4.197-1.386-6.533,3.086-6.906,6.209c-0.569,4.764,4.172,10.889,4.172,10.889l0.001-0.003l-0.001,0.003
							c0,0,7.742,0.237,11.263-3.022C147.862,421.764,150.119,417.23,146.52,414.665z"/>
					</g>
					<g>
						<path style="fill:#156B96;" d="M-3.488,479.417l-13.755,13.869c-3.74,3.771-3.715,9.859,0.056,13.599l13.869,13.755
							c3.771,3.74,9.859,3.715,13.599-0.056l4.659-4.697l8.039,3.536l-3.601-8.01l4.659-4.697c3.74-3.771,3.715-9.859-0.056-13.599
							l-13.869-13.755C6.341,475.621,0.252,475.646-3.488,479.417z"/>
						<g>
							<path style="fill:#00000000;" d="M11.325,495.94c0.24-0.679,0.092-1.465-0.454-2.006c-0.642-0.637-1.618-0.723-2.356-0.271
								c0.134-0.666-0.085-1.388-0.66-1.865c-0.78-0.647-1.947-0.52-2.66,0.199l-5.175,5.217c0,0-2.768-4.484-4.505-5.046
								s-2.192,0.621-2.192,0.621s1.93,0.929,3.466,6.779c0.313,1.191,0.47,2.721,1.344,3.589l5.325,5.282
								c1.382,1.37,3.612,1.361,4.983-0.02L13,503.823l1.566-1.579l0.039-0.04c0.754-0.76,0.826-2.075,0.058-2.82
								c-0.318-0.308-0.716-0.477-1.125-0.523c0.542-0.754,0.477-1.809-0.204-2.484C12.789,495.836,12.002,495.695,11.325,495.94z"
								/>
							<path style="fill:#00000000;" d="M3.631,511.53L3.631,511.53c-0.602,0.607-1.583,0.612-2.191,0.009l-5.926-5.877
								c-0.607-0.603-0.612-1.583-0.009-2.191l0,0c0.602-0.607,1.583-0.611,2.191-0.009l5.926,5.877
								C4.23,509.942,4.234,510.923,3.631,511.53z"/>
						</g>
					</g>
					<g>
						<path style="fill:#156B96;" d="M628.596,386.511l-11.899,3.279c-3.235,0.891-5.135,4.237-4.244,7.472l3.279,11.899
							c0.891,3.235,4.237,5.135,7.472,4.244l4.03-1.111l3.295,4.465l0.544-5.523l4.03-1.11c3.235-0.891,5.135-4.237,4.244-7.472
							l-3.279-11.899C635.176,387.519,631.831,385.619,628.596,386.511z"/>
						<g>
							<path style="fill:#00000000;" d="M631.522,400.224c0.345-0.297,0.511-0.774,0.382-1.242c-0.152-0.551-0.66-0.905-1.206-0.889
								c0.283-0.323,0.39-0.788,0.224-1.23c-0.224-0.599-0.904-0.897-1.521-0.727l-4.477,1.233c0,0-0.107-3.328-0.883-4.182
								c-0.776-0.854-1.397-0.349-1.397-0.349s0.766,1.116-0.231,4.805c-0.203,0.751-0.598,1.639-0.391,2.39l1.259,4.569
								c0.327,1.185,1.552,1.882,2.738,1.555l3.943-1.086l1.355-0.373l0.034-0.009c0.652-0.18,1.105-0.878,0.918-1.528
								c-0.077-0.269-0.242-0.486-0.452-0.64c0.534-0.243,0.83-0.841,0.669-1.426C632.357,400.627,631.97,400.303,631.522,400.224z"
								/>
							<path style="fill:#00000000;" d="M622.404,406.352L622.404,406.352c-0.521,0.144-1.06-0.163-1.204-0.684l-1.401-5.084
								c-0.144-0.521,0.163-1.06,0.684-1.204l0,0c0.521-0.144,1.06,0.163,1.204,0.684l1.401,5.084
								C623.232,405.669,622.925,406.208,622.404,406.352z"/>
						</g>
					</g>
					<g>
						<path style="fill:#D12A42;" d="M599.754,413.043l-11.966-15.439c-3.253-4.197-9.294-4.963-13.491-1.709l-15.439,11.967
							c-4.197,3.253-4.963,9.294-1.709,13.491l4.053,5.229l-4.549,7.513l8.409-2.532l4.053,5.229
							c3.253,4.197,9.294,4.963,13.491,1.709l15.439-11.966C602.242,423.28,603.007,417.24,599.754,413.043z"/>
						<path style="fill:#00000000;" d="M587.738,416.423c-1.835-3.27-4.98-2.564-4.98-2.564s1.401-2.956-1.241-5.462
							c-3.056-2.899-6.885,0.008-8.474,2.549c-2.424,3.876-0.823,11.081-0.823,11.081l0.002-0.002l-0.002,0.002
							c0,0,6.579,3.347,10.937,1.966C586.013,423.089,589.799,420.096,587.738,416.423z"/>
					</g>
					<g>
						<path style="fill:#156B96;" d="M271.367,449.851l-27.848,2.56c-7.571,0.696-13.145,7.398-12.449,14.97l2.56,27.848
							c0.696,7.571,7.398,13.145,14.97,12.449l9.432-0.867l5.567,11.274l3.418-12.1l9.432-0.867
							c7.571-0.696,13.145-7.398,12.449-14.97l-2.56-27.848C285.641,454.728,278.939,449.155,271.367,449.851z"/>
						<g>
							<path style="fill:#00000000;" d="M272.416,481.604c0.888-0.525,1.448-1.522,1.348-2.618c-0.118-1.289-1.11-2.281-2.336-2.465
								c0.759-0.607,1.184-1.601,0.992-2.653c-0.26-1.426-1.657-2.361-3.101-2.229l-10.476,0.963c0,0,1.089-7.466-0.3-9.68
								c-1.389-2.214-2.976-1.335-2.976-1.335s1.263,2.794-2.433,10.625c-0.753,1.595-1.988,3.417-1.827,5.173l0.983,10.693
								c0.255,2.774,2.711,4.816,5.485,4.561l9.227-0.848l3.17-0.292l0.08-0.007c1.527-0.14,2.815-1.516,2.658-3.041
								c-0.065-0.63-0.346-1.181-0.753-1.608c1.288-0.329,2.187-1.545,2.062-2.912C274.118,482.837,273.385,481.959,272.416,481.604
								z"/>
							<path style="fill:#00000000;" d="M249.634,491.629L249.634,491.629c-1.22,0.112-2.3-0.786-2.412-2.006l-1.094-11.899
								c-0.112-1.22,0.786-2.3,2.006-2.412l0,0c1.22-0.112,2.3,0.786,2.412,2.006l1.094,11.899
								C251.752,490.437,250.854,491.517,249.634,491.629z"/>
						</g>
					</g>
					<g>
						<path style="fill:#156B96;" d="M155.397,461.329l-27.629-4.327c-7.512-1.176-14.555,3.96-15.731,11.471l-4.327,27.629
							c-1.176,7.512,3.96,14.555,11.471,15.731l9.358,1.465l2.641,12.293l6.273-10.897l9.358,1.466
							c7.512,1.176,14.555-3.96,15.731-11.471l4.327-27.629C168.045,469.548,162.909,462.505,155.397,461.329z"/>
						<g>
							<path style="fill:#00000000;" d="M148.65,492.375c0.989-0.292,1.777-1.122,1.947-2.209c0.2-1.279-0.518-2.483-1.662-2.961
								c0.885-0.403,1.539-1.263,1.61-2.33c0.096-1.447-1.029-2.695-2.462-2.919l-10.394-1.628c0,0,2.882-6.973,2.076-9.459
								s-2.559-2.022-2.559-2.022s0.541,3.018-4.957,9.708c-1.12,1.362-2.763,2.828-3.036,4.57l-1.661,10.609
								c-0.431,2.752,1.451,5.333,4.203,5.764l9.154,1.434l3.145,0.492l0.079,0.012c1.515,0.237,3.1-0.782,3.321-2.299
								c0.091-0.627-0.047-1.23-0.337-1.743c1.33-0.004,2.499-0.964,2.711-2.32C149.998,493.986,149.503,492.956,148.65,492.375z"/>
							<path style="fill:#00000000;" d="M124.108,496.525L124.108,496.525c-1.21-0.19-2.038-1.324-1.848-2.534l1.849-11.805
								c0.189-1.21,1.324-2.038,2.535-1.848l0,0c1.21,0.19,2.038,1.324,1.848,2.535l-1.849,11.805
								C126.453,495.887,125.318,496.715,124.108,496.525z"/>
						</g>
					</g>
					<g>
						<path style="fill:#D12A42;" d="M626.32,453.429l-25.828,10.723c-7.022,2.915-10.351,10.971-7.436,17.994l10.723,25.828
							c2.915,7.022,10.971,10.351,17.994,7.436l8.748-3.632l8.667,9.11l-0.334-12.569l8.748-3.632
							c7.022-2.915,10.351-10.971,7.436-17.994l-10.723-25.828C641.399,453.843,633.343,450.514,626.32,453.429z"/>
						<path style="fill:#00000000;" d="M626.47,471.299c-5.208,1.305-5.416,5.915-5.416,5.915s-3.556-3.047-8.012-0.34
							c-5.154,3.131-2.579,9.514,0.334,12.666c4.443,4.806,14.998,5.306,14.998,5.306l-0.001-0.004l0.001,0.004
							c0,0,7.098-7.829,6.83-14.368C635.029,476.189,632.319,469.833,626.47,471.299z"/>
					</g>
					<g>
						<path style="fill:#D12A42;" d="M492.65,456.041l-24.915-0.438c-6.774-0.119-12.362,5.276-12.481,12.05l-0.438,24.915
							c-0.119,6.774,5.276,12.362,12.05,12.481l8.439,0.148l3.835,10.527l4.203-10.386l8.439,0.148
							c6.774,0.119,12.362-5.276,12.481-12.05l0.438-24.915C504.819,461.749,499.424,456.161,492.65,456.041z"/>
						<path style="fill:#00000000;" d="M486.409,470.691c-4.719-0.788-6.53,2.903-6.53,2.903s-1.819-3.755-6.423-3.131
							c-5.325,0.722-5.494,6.853-4.237,10.465c1.917,5.508,10.361,9.675,10.361,9.675v-0.004v0.004c0,0,8.586-3.867,10.695-9.304
							C491.659,477.733,491.709,471.577,486.409,470.691z"/>
					</g>
					<g>
						<path style="fill:#D12A42;" d="M753.066,461.38l-27.072-7.014c-7.36-1.907-14.873,2.514-16.78,9.874l-7.014,27.072
							c-1.907,7.36,2.514,14.873,9.874,16.78l9.169,2.376l1.423,12.493l7.311-10.23l9.169,2.376
							c7.36,1.907,14.873-2.514,16.78-9.874l7.014-27.072C764.847,470.8,760.427,463.288,753.066,461.38z"/>
						<path style="fill:#00000000;" d="M742.413,475.729c-4.942-2.098-7.886,1.455-7.886,1.455s-1-4.575-6.188-5.101
							c-6-0.609-7.793,6.036-7.369,10.307c0.647,6.513,8.768,13.275,8.768,13.275l0.001-0.004l-0.001,0.004
							c0,0,10.383-1.967,14.111-7.347C746.294,484.79,747.964,478.085,742.413,475.729z"/>
					</g>
					<g>
						<path style="fill:#156B96;" d="M396.978,467.863l-13.755,13.869c-3.74,3.771-3.715,9.859,0.056,13.599l13.869,13.755
							c3.771,3.74,9.859,3.715,13.599-0.056l4.659-4.697l8.039,3.536l-3.601-8.01l4.659-4.697c3.74-3.771,3.715-9.859-0.056-13.599
							l-13.869-13.755C406.806,464.067,400.718,464.092,396.978,467.863z"/>
						<g>
							<path style="fill:#00000000;" d="M411.79,484.386c0.239-0.68,0.092-1.465-0.454-2.006c-0.642-0.637-1.618-0.723-2.356-0.271
								c0.134-0.666-0.085-1.388-0.66-1.865c-0.78-0.647-1.947-0.52-2.66,0.199l-5.175,5.217c0,0-2.768-4.484-4.505-5.046
								c-1.737-0.562-2.192,0.621-2.192,0.621s1.93,0.928,3.466,6.778c0.313,1.191,0.47,2.721,1.344,3.589l5.325,5.282
								c1.382,1.37,3.612,1.361,4.983-0.021l4.558-4.595l1.566-1.579l0.039-0.04c0.754-0.76,0.826-2.075,0.058-2.82
								c-0.318-0.308-0.715-0.477-1.125-0.523c0.542-0.755,0.477-1.809-0.203-2.484C413.254,484.282,412.468,484.141,411.79,484.386
								z"/>
							<path style="fill:#00000000;" d="M404.097,499.976L404.097,499.976c-0.602,0.607-1.583,0.611-2.191,0.009l-5.926-5.877
								c-0.608-0.603-0.612-1.583-0.009-2.191l0,0c0.603-0.607,1.583-0.611,2.191-0.009l5.926,5.877
								C404.695,498.388,404.699,499.369,404.097,499.976z"/>
						</g>
					</g>
					<g>
						<path style="fill:#156B96;" d="M678.984,415.704l-27.849,2.56c-7.571,0.696-13.145,7.398-12.449,14.97l2.56,27.848
							c0.696,7.571,7.398,13.145,14.97,12.449l9.432-0.867l5.567,11.274l3.418-12.1l9.432-0.867
							c7.571-0.696,13.145-7.398,12.449-14.97l-2.56-27.848C693.258,420.582,686.555,415.008,678.984,415.704z"/>
						<g>
							<path style="fill:#00000000;" d="M680.033,447.458c0.888-0.525,1.448-1.522,1.348-2.618c-0.119-1.289-1.11-2.281-2.336-2.465
								c0.759-0.607,1.184-1.601,0.992-2.653c-0.26-1.427-1.657-2.361-3.101-2.229l-10.476,0.963c0,0,1.089-7.466-0.3-9.68
								c-1.389-2.214-2.976-1.335-2.976-1.335s1.263,2.794-2.433,10.625c-0.753,1.595-1.988,3.417-1.827,5.173l0.983,10.693
								c0.255,2.774,2.711,4.816,5.485,4.561l9.227-0.848l3.17-0.291l0.08-0.007c1.527-0.14,2.815-1.516,2.658-3.041
								c-0.065-0.63-0.346-1.182-0.753-1.608c1.289-0.329,2.187-1.546,2.062-2.912C681.734,448.691,681.002,447.812,680.033,447.458
								z"/>
							<path style="fill:#00000000;" d="M657.251,457.483L657.251,457.483c-1.22,0.112-2.3-0.786-2.412-2.006l-1.094-11.899
								c-0.112-1.22,0.786-2.3,2.006-2.412l0,0c1.22-0.112,2.3,0.786,2.412,2.006l1.094,11.899
								C659.369,456.291,658.471,457.371,657.251,457.483z"/>
						</g>
					</g>
					<g>
						<path style="fill:#156B96;" d="M555.863,449.775l-27.629-4.327c-7.512-1.176-14.555,3.96-15.731,11.471l-4.327,27.629
							c-1.176,7.512,3.959,14.555,11.471,15.731l9.358,1.465l2.641,12.293l6.273-10.897l9.358,1.465
							c7.512,1.176,14.555-3.96,15.731-11.471l4.327-27.629C568.51,457.994,563.375,450.951,555.863,449.775z"/>
						<g>
							<path style="fill:#00000000;" d="M549.116,480.821c0.989-0.292,1.776-1.122,1.947-2.209c0.2-1.279-0.519-2.483-1.662-2.961
								c0.885-0.403,1.539-1.263,1.61-2.33c0.096-1.447-1.029-2.695-2.462-2.919l-10.394-1.628c0,0,2.882-6.973,2.076-9.459
								c-0.806-2.486-2.559-2.022-2.559-2.022s0.541,3.018-4.957,9.708c-1.12,1.362-2.763,2.828-3.036,4.57l-1.661,10.609
								c-0.431,2.752,1.451,5.333,4.203,5.764l9.154,1.434l3.145,0.492l0.079,0.012c1.515,0.237,3.1-0.781,3.321-2.299
								c0.091-0.627-0.047-1.23-0.337-1.744c1.33-0.004,2.499-0.964,2.711-2.32C550.464,482.432,549.968,481.401,549.116,480.821z"
								/>
							<path style="fill:#00000000;" d="M524.574,484.971L524.574,484.971c-1.21-0.19-2.038-1.324-1.848-2.535l1.849-11.805
								c0.19-1.21,1.324-2.038,2.534-1.848l0,0c1.21,0.19,2.038,1.324,1.848,2.535l-1.849,11.805
								C526.919,484.333,525.784,485.16,524.574,484.971z"/>
						</g>
					</g>
				</g>
				<g>
					<g>
						<path style="fill:#F24052;" d="M539.501,140.164l-26.35-9.368c-7.164-2.547-15.036,1.196-17.583,8.36l-9.368,26.35
							c-2.547,7.164,1.196,15.036,8.36,17.583l8.925,3.173l0.319,12.57l8.182-9.548l8.925,3.173
							c7.164,2.547,15.036-1.196,17.583-8.36l9.368-26.35C550.408,150.583,546.665,142.711,539.501,140.164z"/>
						<path style="fill:#00000000;" d="M527.627,153.52c-4.738-2.525-7.984,0.755-7.984,0.755s-0.594-4.645-5.715-5.626
							c-5.923-1.134-8.294,5.328-8.246,9.619c0.072,6.545,7.567,13.994,7.567,13.994l0.001-0.004l-0.001,0.004
							c0,0,10.516-1.047,14.703-6.077C530.697,162.887,532.949,156.355,527.627,153.52z"/>
					</g>
					<g>
						<path style="fill:#F24052;" d="M153.747,90.877l-11.155,5.207c-3.033,1.416-4.344,5.022-2.928,8.055l5.207,11.156
							c1.416,3.033,5.022,4.344,8.055,2.928l3.778-1.764l3.985,3.842l-0.386-5.522l3.778-1.763c3.033-1.416,4.344-5.022,2.928-8.055
							l-5.207-11.156C160.387,90.772,156.78,89.461,153.747,90.877z"/>
						<path style="fill:#00000000;" d="M154.153,98.733c-2.266,0.673-2.269,2.704-2.269,2.704s-1.622-1.272-3.53,0.003
							c-2.207,1.475-0.953,4.233,0.388,5.564c2.045,2.029,6.697,2.049,6.697,2.049l-0.001-0.002l0.001,0.002
							c0,0,2.973-3.578,2.731-6.449C158.01,100.721,156.697,97.978,154.153,98.733z"/>
					</g>
					<g>
						<path style="fill:#F24052;" d="M588.139,424.2l-25.828,10.723c-7.022,2.915-10.351,10.971-7.436,17.993l10.723,25.828
							c2.915,7.022,10.971,10.351,17.994,7.436l8.748-3.632l8.667,9.11l-0.334-12.569l8.748-3.632
							c7.022-2.915,10.351-10.971,7.436-17.994l-10.723-25.828C603.217,424.614,595.161,421.285,588.139,424.2z"/>
						<path style="fill:#00000000;" d="M588.288,442.07c-5.208,1.305-5.416,5.915-5.416,5.915s-3.556-3.047-8.012-0.34
							c-5.154,3.131-2.579,9.514,0.334,12.666c4.443,4.806,14.998,5.306,14.998,5.306l-0.002-0.004l0.002,0.004
							c0,0,7.098-7.829,6.83-14.368C596.847,446.96,594.138,440.604,588.288,442.07z"/>
					</g>
					<g>
						<path style="fill:#F24052;" d="M41.286,460.313l-23.015,9.555c-6.257,2.598-9.224,9.776-6.626,16.033l9.555,23.015
							c2.598,6.257,9.776,9.224,16.033,6.626l7.795-3.236l7.722,8.117l-0.298-11.2l7.795-3.236
							c6.257-2.598,9.224-9.776,6.626-16.033l-9.555-23.015C54.721,460.681,47.543,457.715,41.286,460.313z"/>
						<path style="fill:#00000000;" d="M41.419,476.236c-4.641,1.163-4.826,5.27-4.826,5.27s-3.168-2.715-7.139-0.303
							c-4.593,2.79-2.298,8.478,0.298,11.286c3.959,4.283,13.364,4.728,13.364,4.728l-0.001-0.003l0.001,0.003
							c0,0,6.325-6.976,6.086-12.803C49.046,480.593,46.631,474.93,41.419,476.236z"/>
					</g>
					<g>
						<path style="fill:#F24052;" d="M323.065,431.574l-27.072-7.014c-7.36-1.907-14.873,2.514-16.78,9.874l-7.014,27.072
							c-1.907,7.36,2.514,14.873,9.874,16.78l9.169,2.376l1.423,12.493l7.311-10.23l9.169,2.376
							c7.36,1.907,14.873-2.514,16.78-9.874l7.014-27.072C334.847,440.994,330.426,433.481,323.065,431.574z"/>
						<path style="fill:#00000000;" d="M312.412,445.922c-4.942-2.098-7.886,1.455-7.886,1.455s-1-4.575-6.188-5.101
							c-6-0.609-7.793,6.036-7.369,10.307c0.647,6.513,8.768,13.275,8.768,13.275l0.001-0.004l-0.001,0.004
							c0,0,10.383-1.967,14.111-7.347C316.294,454.983,317.963,448.279,312.412,445.922z"/>
					</g>
					<g>
						<path style="fill:#2279AF;" d="M304.051,93.938l-18.867,8.014c-5.129,2.179-7.521,8.104-5.343,13.233l8.014,18.867
							c2.179,5.13,8.103,7.521,13.233,5.343l6.39-2.714l6.407,6.625l-0.32-9.211l6.39-2.714c5.13-2.179,7.522-8.103,5.343-13.233
							l-8.014-18.867C315.105,94.151,309.18,91.759,304.051,93.938z"/>
						<g>
							<path style="fill:#00000000;" d="M311.883,115.869c0.502-0.565,0.671-1.386,0.355-2.129c-0.371-0.873-1.285-1.344-2.181-1.198
								c0.394-0.594,0.468-1.382,0.099-2.074c-0.501-0.938-1.685-1.278-2.663-0.862l-7.098,3.015c0,0-0.909-5.455-2.374-6.69
								c-1.465-1.235-2.376-0.267-2.376-0.267s1.506,1.668,0.677,7.961c-0.169,1.281-0.624,2.83-0.118,4.02l3.077,7.244
								c0.798,1.88,2.969,2.756,4.849,1.958l6.251-2.655l2.148-0.912l0.054-0.023c1.034-0.439,1.626-1.688,1.175-2.717
								c-0.186-0.425-0.506-0.747-0.885-0.954c0.826-0.518,1.181-1.568,0.788-2.494C313.346,116.35,312.638,115.9,311.883,115.869z"
								/>
							<path style="fill:#00000000;" d="M298.221,127.961L298.221,127.961c-0.827,0.351-1.781-0.034-2.132-0.861l-3.424-8.061
								c-0.351-0.826,0.034-1.781,0.861-2.132l0,0c0.826-0.351,1.781,0.034,2.132,0.861l3.424,8.061
								C299.433,126.656,299.048,127.61,298.221,127.961z"/>
						</g>
					</g>
					<g>
						<path style="fill:#2279AF;" d="M723.748,455.128l-16.537-12.113c-4.496-3.293-10.81-2.318-14.104,2.178l-12.113,16.537
							c-3.293,4.496-2.318,10.81,2.177,14.104l5.601,4.103l-2.416,8.894l7.751-4.986l5.601,4.103
							c4.496,3.293,10.81,2.319,14.104-2.177l12.113-16.537C729.219,464.736,728.244,458.422,723.748,455.128z"/>
						<g>
							<path style="fill:#00000000;" d="M708.909,473.076c0.742,0.143,1.534-0.133,2.011-0.784c0.561-0.766,0.498-1.792-0.086-2.488
								c0.712,0.035,1.427-0.304,1.832-0.975c0.55-0.91,0.236-2.101-0.621-2.729l-6.221-4.557c0,0,4.222-3.571,4.534-5.461
								c0.312-1.89-0.986-2.178-0.986-2.178s-0.663,2.147-6.494,4.654c-1.187,0.51-2.751,0.912-3.515,1.954l-4.651,6.35
								c-1.207,1.647-0.849,3.961,0.798,5.168l5.479,4.014l1.882,1.379l0.047,0.035c0.907,0.664,2.282,0.534,2.936-0.38
								c0.27-0.378,0.383-0.817,0.367-1.249c0.867,0.445,1.951,0.213,2.546-0.598C709.244,474.579,709.268,473.741,708.909,473.076z
								"/>
							<path style="fill:#00000000;" d="M691.53,467.521L691.53,467.521c-0.724-0.531-0.881-1.548-0.351-2.272l5.176-7.066
								c0.531-0.724,1.548-0.881,2.272-0.351l0,0c0.724,0.531,0.881,1.548,0.351,2.272l-5.176,7.066
								C693.272,467.895,692.255,468.052,691.53,467.521z"/>
						</g>
					</g>
					<g>
						<path style="fill:#F24052;" d="M179.681,321.659l-18.263-9.308c-4.965-2.531-11.042-0.557-13.573,4.408l-9.308,18.263
							c-2.531,4.965-0.557,11.042,4.408,13.573l6.186,3.153l-0.96,9.166l6.852-6.163l6.186,3.153
							c4.965,2.531,11.042,0.557,13.573-4.408l9.308-18.263C186.62,330.267,184.647,324.19,179.681,321.659z"/>
						<path style="fill:#00000000;" d="M169.784,330.24c-3.205-2.284-5.874-0.208-5.874-0.208s0.009-3.432-3.62-4.631
							c-4.197-1.386-6.533,3.085-6.906,6.209c-0.569,4.764,4.172,10.889,4.172,10.889l0.001-0.003l-0.001,0.003
							c0,0,7.742,0.237,11.263-3.023C171.127,337.34,173.384,332.806,169.784,330.24z"/>
					</g>
					<g>
						<path style="fill:#2279AF;" d="M55.804,241.744l-13.755,13.869c-3.74,3.771-3.715,9.859,0.056,13.599l13.869,13.755
							c3.771,3.74,9.859,3.715,13.599-0.056l4.659-4.697l8.039,3.536l-3.602-8.01l4.659-4.697c3.74-3.771,3.715-9.859-0.056-13.599
							l-13.869-13.755C65.632,237.948,59.543,237.973,55.804,241.744z"/>
						<g>
							<path style="fill:#00000000;" d="M70.616,258.267c0.24-0.679,0.092-1.465-0.454-2.006c-0.642-0.637-1.618-0.723-2.356-0.271
								c0.134-0.666-0.085-1.388-0.66-1.865c-0.78-0.647-1.947-0.52-2.66,0.199l-5.175,5.217c0,0-2.768-4.484-4.505-5.046
								c-1.737-0.562-2.192,0.621-2.192,0.621s1.93,0.929,3.466,6.779c0.313,1.191,0.47,2.721,1.344,3.589l5.325,5.281
								c1.382,1.37,3.612,1.361,4.983-0.02l4.558-4.595l1.566-1.579l0.039-0.04c0.754-0.76,0.826-2.075,0.058-2.82
								c-0.318-0.308-0.716-0.477-1.125-0.523c0.542-0.754,0.477-1.809-0.204-2.484C72.08,258.164,71.294,258.022,70.616,258.267z"
								/>
							<path style="fill:#00000000;" d="M62.922,273.857L62.922,273.857c-0.603,0.608-1.583,0.612-2.191,0.009l-5.926-5.877
								c-0.608-0.603-0.611-1.583-0.009-2.191l0,0c0.603-0.607,1.583-0.611,2.191-0.009l5.926,5.877
								C63.521,272.269,63.525,273.25,62.922,273.857z"/>
						</g>
					</g>
					<g>
						<path style="fill:#2279AF;" d="M665.089,201.625l-8.606-8.847c-2.34-2.405-6.187-2.458-8.592-0.118l-8.847,8.606
							c-2.405,2.34-2.458,6.187-0.119,8.592l2.915,2.997l-2.325,5.039l5.101-2.185l2.915,2.997c2.34,2.405,6.187,2.458,8.592,0.119
							l8.847-8.606C667.376,207.877,667.429,204.03,665.089,201.625z"/>
						<g>
							<path style="fill:#00000000;" d="M654.482,210.796c0.427,0.159,0.924,0.075,1.272-0.264c0.41-0.398,0.475-1.014,0.198-1.486
								c0.419,0.092,0.878-0.038,1.186-0.396c0.417-0.485,0.351-1.224-0.096-1.683l-3.238-3.328c0,0,2.865-1.698,3.239-2.789
								c0.374-1.091-0.368-1.392-0.368-1.392s-0.608,1.209-4.322,2.113c-0.756,0.184-1.725,0.266-2.282,0.809l-3.397,3.305
								c-0.881,0.857-0.901,2.267-0.043,3.148l2.852,2.931l0.98,1.007l0.025,0.025c0.472,0.485,1.301,0.546,1.781,0.068
								c0.198-0.197,0.309-0.447,0.343-0.705c0.471,0.351,1.137,0.322,1.571-0.1C654.531,211.722,654.629,211.227,654.482,210.796z"
								/>
							<path style="fill:#00000000;" d="M644.72,205.759L644.72,205.759c-0.377-0.387-0.368-1.007,0.019-1.384l3.78-3.677
								c0.387-0.377,1.007-0.368,1.384,0.019l0,0c0.377,0.387,0.368,1.007-0.019,1.384l-3.78,3.677
								C645.717,206.155,645.097,206.146,644.72,205.759z"/>
						</g>
					</g>
					<g>
						<path style="fill:#F24052;" d="M623.018,328.619l-11.966-15.439c-3.253-4.197-9.294-4.963-13.491-1.709l-15.439,11.966
							c-4.197,3.253-4.963,9.294-1.709,13.491l4.053,5.229l-4.549,7.512l8.409-2.532l4.053,5.229
							c3.253,4.198,9.294,4.963,13.491,1.709l15.439-11.967C625.507,338.856,626.272,332.816,623.018,328.619z"/>
						<path style="fill:#00000000;" d="M611.003,331.999c-1.835-3.27-4.98-2.564-4.98-2.564s1.401-2.956-1.241-5.462
							c-3.056-2.899-6.885,0.008-8.474,2.549c-2.424,3.876-0.823,11.081-0.823,11.081l0.002-0.002l-0.002,0.002
							c0,0,6.579,3.347,10.937,1.966C609.278,338.664,613.064,335.672,611.003,331.999z"/>
					</g>
					<g>
						<path style="fill:#2279AF;" d="M512.743,369.825l-26.038-10.203c-7.079-2.774-15.067,0.716-17.841,7.796l-10.203,26.038
							c-2.774,7.079,0.716,15.067,7.796,17.841l8.819,3.456l-0.082,12.573l8.482-9.282l8.819,3.456
							c7.079,2.774,15.067-0.716,17.841-7.796l10.203-26.038C523.313,380.586,519.822,372.599,512.743,369.825z"/>
						<g>
							<path style="fill:#00000000;" d="M499.438,398.676c1.029-0.071,1.977-0.711,2.379-1.735c0.472-1.205,0.031-2.537-0.982-3.25
								c0.951-0.202,1.776-0.9,2.076-1.926c0.407-1.392-0.422-2.854-1.772-3.383l-9.795-3.838c0,0,4.322-6.184,4.074-8.786
								c-0.249-2.602-2.061-2.528-2.061-2.528s-0.124,3.064-6.94,8.405c-1.388,1.088-3.31,2.163-3.953,3.804l-3.918,9.998
								c-1.016,2.594,0.262,5.521,2.856,6.537l8.627,3.381l2.964,1.161l0.075,0.029c1.427,0.559,3.196-0.092,3.74-1.526
								c0.225-0.592,0.221-1.211,0.049-1.775c1.299,0.284,2.648-0.4,3.149-1.678C500.406,400.541,500.145,399.427,499.438,398.676z"
								/>
							<path style="fill:#00000000;" d="M474.579,397.417L474.579,397.417c-1.141-0.447-1.703-1.734-1.256-2.874l4.359-11.125
								c0.447-1.141,1.734-1.703,2.874-1.256l0,0c1.141,0.447,1.703,1.734,1.256,2.874l-4.359,11.125
								C477.007,397.302,475.72,397.864,474.579,397.417z"/>
						</g>
					</g>
					<g>
						<path style="fill:#2279AF;" d="M172.441,419.808l-26.636,8.522c-7.242,2.317-11.234,10.066-8.917,17.308l8.522,26.636
							c2.317,7.242,10.066,11.234,17.307,8.917l9.021-2.886l7.873,9.804l0.72-12.553l9.021-2.886
							c7.242-2.317,11.234-10.066,8.917-17.308l-8.522-26.636C187.431,421.483,179.682,417.491,172.441,419.808z"/>
						<g>
							<path style="fill:#00000000;" d="M180.332,450.583c0.753-0.705,1.085-1.8,0.749-2.847c-0.395-1.233-1.577-1.987-2.813-1.901
								c0.61-0.757,0.809-1.819,0.395-2.804c-0.563-1.336-2.128-1.947-3.51-1.505l-10.02,3.206c0,0-0.551-7.524-2.386-9.386
								c-1.835-1.861-3.195-0.66-3.195-0.66s1.837,2.455-0.078,10.9c-0.39,1.72-1.202,3.767-0.665,5.446l3.272,10.227
								c0.849,2.653,3.688,4.116,6.342,3.267l8.825-2.824l3.032-0.97l0.076-0.024c1.46-0.467,2.421-2.089,1.937-3.544
								c-0.2-0.601-0.594-1.079-1.083-1.408c1.187-0.6,1.801-1.982,1.383-3.289C182.259,451.419,181.354,450.72,180.332,450.583z"/>
							<path style="fill:#00000000;" d="M160.257,465.298L160.257,465.298c-1.167,0.373-2.415-0.27-2.788-1.437l-3.641-11.38
								c-0.373-1.167,0.27-2.415,1.437-2.789h0c1.167-0.373,2.415,0.27,2.788,1.437l3.641,11.381
								C162.067,463.676,161.423,464.924,160.257,465.298z"/>
						</g>
					</g>
				</g>
			</g>
			<g>
				<path style="fill:#893D0A;" d="M464.528,286.017c14.592-6.424,11.498-23.961,11.498-23.961
					c-2.573,2.422-6.864,3.123-10.783,3.169c14.853-7.105,5.079-19.721,5.079-19.721s-0.433-8.908-0.009,2.545
					c0.424,11.453-14.669,9.272-17.816,1.697c-3.147-7.575,5.09-28.421-10.181-32.663c-15.271-4.242-32.765,4.05-38.371-15.797
					c0,0-17.198-56.74-56-44.559c-38.802,12.181-15.495,50.599-31.728,69.611c-16.233,19.012,6.052,62.009,45.688,78.552
					c25.237,10.534,53.341-5.417,74.593-20.207c3.036,3.713,7.561,6.694,13.437,7.757c24.244,4.385,26.364-18.404,26.364-18.404
					C471.575,286.683,464.528,286.017,464.528,286.017z"/>
				<path style="fill:#D87D2B;" d="M237.857,368.573c0,0-11.877,37.276-4.242,55.94c7.635,18.664,54.297,0,67.446-16.119
					c13.15-16.119,35.439-154.772,35.439-154.772l-4.98-2.356c0,0-13.066,73.138-24.095,110.467
					C307.424,361.733,284.094,351.658,237.857,368.573z"/>
				<path style="fill:#D87D2B;" d="M237.857,368.573c0,0,8.165,16.49,73.014-1.75C310.87,366.823,294.698,350.81,237.857,368.573z"
					/>
				<path style="fill:#FF8B66;" d="M422.65,247.44c8.638,6.972,15.849,24.931,15.849,24.931l21.21,52.033l-18.529,7.635
					l-31.949-50.055L422.65,247.44z"/>
				<g>
					<g>
						<path style="fill:#FF9E3E;" d="M506.536,680.396l-14.713,6.102c0,0-45.129-124.247-52.874-136.89
							c-6.663-10.906-34.273-52.267-46.661-85.494c-0.292,0.212-2.444,0.194-5.377,0.118l-0.023,0.004
							c-0.731-0.043-1.508-0.078-2.33-0.105c-0.731-0.043-1.508-0.078-2.285-0.113c5.092,34.317,4.638,77.751,4.32,89.952
							c-0.378,14.804,22.687,145.06,22.687,145.06l-15.799,2.076c-47.291-100.739-38.122-143.044-38.122-143.044
							s-43.067-90.597-38.928-125.74c1.356-11.718,3.635-22.514,6.044-31.673c0.202-0.758,0.384-1.489,0.616-2.204
							c4.651-17.076,9.639-28.017,9.639-28.017l32.611-1.283l0.209-0.572l0.962,0.028l1.659,10.028l4.014-0.874l0.898-0.219
							l0.023-0.004l13.14-2.898l1.804-0.392l11.495-2.532c0,0,8.79,9.923,21.65,26.088c0.477,0.622,0.976,1.24,1.453,1.862
							c4.582,5.807,9.636,12.353,14.974,19.483c21.166,28.387,30.423,118.387,30.423,118.387S497.119,569.515,506.536,680.396z"/>
					</g>
					<g>
						<path style="fill:#D87D2B;" d="M343.869,372.37c-0.076,0.246-5.069,21.186-21.394,28.279c0.202-0.758,0.384-1.489,0.616-2.204
							c14.495-7.28,19.023-26.228,19.08-26.448L343.869,372.37z"/>
					</g>
					<g>
						<path style="fill:#D87D2B;" d="M422.65,399.66c-19.755-0.937-32.79-19.292-36.402-25.026
							c-0.639-1.039-0.975-1.661-1.006-1.702l1.521-0.836c0.03,0.042,0.469,0.857,1.289,2.146
							c3.774,5.87,15.603,21.878,33.145,23.556C421.674,398.42,422.173,399.038,422.65,399.66z"/>
					</g>
					<g>
						<path style="fill:#D87D2B;" d="M386.889,464.236c-0.731-0.043-1.508-0.078-2.33-0.105
							c-3.621-4.658-10.489-14.828-17.663-32.494c-10.328-25.438-1.432-55.831-1.341-56.126l1.67,0.495
							c-0.091,0.295-8.824,30.124,1.271,54.993c0.431,1.05,0.858,2.077,1.277,3.059c0.23,0.546,0.457,1.069,0.684,1.592
							C377.466,451.755,384.014,460.694,386.889,464.236z"/>
					</g>
					<g>
						<path style="fill:#D87D2B;" d="M369.599,435.885c-0.082,0.013-0.165,0.025-0.25,0.032l-0.175-1.719
							c0.925-0.105,1.885-0.782,2.565-1.873c0.917-1.477,2.662-5.961-0.948-15.663c-4.849-13.028,1.218-38.259,1.48-39.326
							l1.678,0.409c-0.062,0.257-6.202,25.785-1.537,38.316c3.737,10.043,2.103,15.072,0.795,17.175
							C372.296,434.702,370.993,435.655,369.599,435.885z"/>
					</g>
				</g>
				<path style="fill:#893D0A;" d="M338.477,245.641c0,0,3.545-9.996-6.174-24.555c-9.719-14.559-15.453-58.296,20.506-62.342
					c0,0,20.568-7.002,33.524,5.092c12.955,12.094,29.696,59.485,24.534,97.556C405.704,299.462,333.004,301.527,338.477,245.641z"
					/>
				<path style="fill:#FF8B66;" d="M399.55,371.71c0,0-31.414,17.274-66.816-1.283c0,0-25.716-119.165-15.928-129.054
					c4.283-4.33,14.346-3.097,24.311-0.33c12.856,3.574,25.591,9.667,25.591,9.667s20.23-6.36,36.854-7.264
					c10.576-0.605,19.676,1.02,21.202,7.847C428.727,268.882,399.55,371.71,399.55,371.71z"/>
				<path style="fill:#EF6E4B;" d="M404.496,243.571c-7.124,0.431-7.544,5.943-14.126,9.649c-6.601,3.732-14.688,7.102-17.822,7.924
					c-3.135,0.822-4.163,5.057-4.163,5.057s-2.021-5.156-3.824-5.325c-1.754-0.154-19.074-12.637-23.442-19.834
					c12.856,3.574,25.591,9.667,25.591,9.667s20.23-6.36,36.854-7.264C404.162,243.533,404.496,243.571,404.496,243.571z"/>
				<g>
					<path style="fill:#CFD8DC;" d="M388.634,715.6c-0.122-6.698-3.305-10.946-2.12-14.382c1.833-5.313,5.641,0.39,5.641,0.39
						c-1.004-7.46,11.436-9.503,13.243-6.312c0.483,0.853,0.997,1.607,1.518,2.324c0.477-1.916,1.499-3.87,3.37-3.132
						c7.305,2.88,0.74,14.519,8.025,21.005c9.274,8.256,6.918,23.442,6.918,23.442l-36.866,6.098
						C380.706,725.549,388.752,722.273,388.634,715.6z"/>
					<path style="fill:#ADBEC4;" d="M411,709.394c0,0-9.474-3.139-20.031,4.837l1.584-4.545c0,0,6.866-6.04,16.741-4.014
						L411,709.394z"/>
					<path style="fill:#ADBEC4;" d="M413.665,716.07c0,0-13.121-2.258-23.677,5.718l1.441-4.778c0,0,10.204-6.576,20.078-4.55
						L413.665,716.07z"/>
				</g>
				<g>
					<path style="fill:#CFD8DC;" d="M515.825,694.561c-2.041-6.38-0.396-11.427-2.625-14.298c-3.447-4.44-5.215,2.186-5.215,2.186
						c-1.452-7.385-13.887-5.315-14.57-1.711c-0.183,0.963-0.427,1.843-0.689,2.689c-1.068-1.66-2.665-3.181-4.199-1.88
						c-5.989,5.079,3.975,13.984-0.834,22.47c-6.122,10.803,0.999,24.42,0.999,24.42l36.866-6.098
						C526.535,701.427,517.862,700.916,515.825,694.561z"/>
					<path style="fill:#ADBEC4;" d="M492.652,695.887c0,0,7.959-6.023,20.521-1.871l-2.964-3.793c0,0-8.445-3.507-17.141,1.59
						L492.652,695.887z"/>
					<path style="fill:#ADBEC4;" d="M492.279,703.067c0,0,11.695-6.363,24.257-2.211l-2.903-4.06c0,0-11.778-2.94-20.474,2.158
						L492.279,703.067z"/>
				</g>
				<path style="fill:#EF6E4B;" d="M357.458,211.416c0,0,7.961,31.634-0.204,37.697c0,0,8.604,11.067,25.06,0.743
					c0,0-5.716-16.003,2.737-37.523C390.711,197.923,357.458,211.416,357.458,211.416z"/>
				<g>
					<path style="fill:#FF8B66;" d="M394.193,201.286c-0.025,1.769-0.216,3.538-0.56,5.256c-0.56,2.723-1.629,5.154-3.105,7.304
						c-9.392,13.846-34.958,16.162-44.527,7.05c-0.496-0.471-0.967-1.005-1.463-1.578c-2.112-2.545-4.009-6.07-5.434-10.104
						c-5.447-15.462-3.894-38.521,19.852-43.56C377.115,161.786,394.511,182.338,394.193,201.286z"/>
					<g>
						<path style="fill:#893D0A;" d="M342.288,181.499c-0.05,0-0.1-0.006-0.151-0.018c-0.341-0.083-0.551-0.427-0.468-0.768
							c1.533-6.302,8-6.298,8.104-6.282c0.35,0.005,0.63,0.294,0.626,0.645c-0.005,0.348-0.29,0.628-0.637,0.628
							c-0.005,0-0.014,0-0.027,0c-0.42,0-5.565,0.109-6.83,5.311C342.835,181.304,342.575,181.499,342.288,181.499z"/>
					</g>
					<g>
						<path style="fill:#893D0A;" d="M375.136,172.325c-0.166,0-0.331-0.064-0.456-0.192c-3.773-3.871-8.981-1.162-9.033-1.135
							c-0.31,0.166-0.694,0.049-0.861-0.262c-0.165-0.31-0.048-0.695,0.262-0.861c0.06-0.032,6.108-3.177,10.542,1.369
							c0.245,0.252,0.24,0.655-0.011,0.9C375.456,172.265,375.296,172.325,375.136,172.325z"/>
					</g>
					<path style="fill:#1A4850;" d="M353.502,186.397c0,0-4.056-1.593-6.761,3.823l-4.351,0.587l5.2,0.209
						C347.591,191.016,348.094,187.267,353.502,186.397z"/>
					<path style="fill:#1A4850;" d="M368.773,182.028c0,0,3.738-3.022,7.795,0.954l2.784-2.863l-3.102,1.432
						C376.249,181.551,372.034,177.972,368.773,182.028z"/>
					<g>
						<path style="fill:#EF6E4B;" d="M356.947,190.32c-0.525-1.794-0.721-5.477,2.301-6.583c3.735-1.363,6.391,3.35,6.502,3.551
							l-1.113,0.617c-0.022-0.04-2.246-3.961-4.952-2.973c-2.671,0.977-1.529,4.989-1.517,5.029L356.947,190.32z"/>
					</g>
					<path style="fill:#DB614D;" d="M351.482,191.483c0.439,0.761-0.604,2.184-2.328,3.18c-1.725,0.995-3.479,1.185-3.918,0.424
						c-0.439-0.761,0.603-2.185,2.328-3.18C349.289,190.911,351.043,190.722,351.482,191.483z"/>
					<path style="fill:#DB614D;" d="M382.499,185.477c-0.055,0.877-1.711,1.486-3.698,1.361c-1.987-0.125-3.554-0.937-3.499-1.814
						c0.055-0.877,1.711-1.486,3.698-1.361C380.988,183.788,382.554,184.6,382.499,185.477z"/>
					<path style="fill:#1A4850;" d="M354.191,198.465c0,0,5.727-6.975,17.498-5.98c0,0,0.62,3.729-7.327,6.61
						C355.57,202.283,354.191,198.465,354.191,198.465z"/>
					<path style="fill:#EF6E4B;" d="M394.193,201.286c-0.025,1.769-0.216,3.538-0.56,5.256c-0.56,2.723-1.629,5.154-3.105,7.304
						c-9.392,13.846-34.958,16.162-44.527,7.05c-0.496-0.471-0.967-1.005-1.463-1.578c-2.112-2.545-4.009-6.07-5.434-10.104
						c2.622,4.365,5.803,8.132,9.252,8.934c9.124,2.112,9.366-11.733,32.031-9.761C388.135,209.062,392.195,205.829,394.193,201.286
						z"/>
				</g>
				<g>
					<path style="fill:#FF8B66;" d="M170.58,122.537c8.453,9.251,17.734,4.083,21.384,14.056c2.26,6.176-4.506,9.578-4.506,9.578
						c-7.052-0.58-17.988,1.405-23.031,2.814c-5.052,1.385-3.751-0.943-3.751-0.943c-0.457,0.167-0.88,0.349-1.304,0.532
						c-3.239,1.349-5.423,2.829-4.796,0.147c0.689-3.032,9.705-7.285,9.705-7.285c-14.34,2.959-15.26,6.701-14.92,3.906
						c0.456-3.818,12.463-8.239,12.823-8.371c-8.856,0.298-13.119,2.648-11.976,0.186c1.158-2.495,16.676-5.066,22.406-5.937
						c1.289-0.199,2.096-0.303,2.096-0.303C167.323,123.838,170.58,122.537,170.58,122.537z"/>
					<path style="fill:#EF6E4B;" d="M172.613,131.221c1.289-0.199,2.096-0.303,2.096-0.303s1.075,4.13,6.441,5.464
						C181.15,136.381,175.084,137.675,172.613,131.221z"/>
					<path style="fill:#EF6E4B;" d="M170.212,143.872c-1.18,0.35-7.964,2.288-9.537,4.171c-0.457,0.167-0.88,0.349-1.304,0.532
						C158.985,145.881,168.722,144.117,170.212,143.872z"/>
				</g>
				<path style="fill:#FF8B66;" d="M191.964,136.594c0,0,67.494,40.989,78.958,52.443c0,0,7.445,3.242,12.959,7.341
					c17.615,13.093,55.887,42.159,64.477,46.921c0,0-25.342,16.237-11.859,45.64c0,0-49.331-59.614-71.318-78.538l-77.724-64.229
					L191.964,136.594z"/>
				<path style="fill:#893D0A;" d="M376.946,169.41c5.985,3.133,8.754,13.573,8.754,13.573s5.98,5.044,8.493,18.304
					c0,0,1.676-30.652-12.747-39.348c0,0,9.756-1.316,17.816,15.673c8.06,16.99,7.211,35.018,7.211,35.018
					s4.242-29.147-8.908-47.448c-13.15-18.301-22.264-8.453-22.264-8.453s0.843-9.212-15.701-12.605
					c-16.544-3.394-35.632,8.484-36.268,22.27c-0.636,13.786,3.606,24.138,3.606,24.138s-8.403-33.009,19.089-36.015
					c0,0-27.79,10.554-19.301,41.038l12.378,13.662c0,0-2.603-10.212,0-18.684c0,0-6.174-19.138,10.661-25.35
					C366.599,158.969,376.946,169.41,376.946,169.41z"/>
				<path style="fill:#FF8B66;" d="M387.703,185.251c0,0,0.767-8.418,4.916-3.696c4.15,4.722,0.145,14.009,0,13.562
					C392.475,194.671,387.703,185.251,387.703,185.251z"/>
				<path style="fill:#FF8B66;" d="M338.333,194.66c0,0-4.931-6.865-6.112-0.691s6.982,12.146,6.88,11.688
					C339,205.198,338.333,194.66,338.333,194.66z"/>
				<path style="fill:#1A4850;" d="M406.261,242.217c0,0,2.439,31.072,15.801,40.298c13.362,9.226-17.566,34.996-17.566,34.996
					l-74.377-18.77l-13.967-8.272c0,0,18.575-42.094,19.453-55.762l4.43,3.132c0,0-13.097,45.631,5.991,55.493
					c19.089,9.862,45.813,1.273,51.539-9.544c5.727-10.817,2.724-41.147,2.724-41.147L406.261,242.217z"/>
				<path style="fill:#67B79C;" d="M282.983,196.377c0,0,3.381,17.633-3.269,28.078c0,0-0.789,9.172,4.128,11.717
					c4.917,2.545,25.278,30.029,25.278,30.029s-7.299,72.618,23.613,104.226c30.912,31.608,73.088,6.152,78.61-5.301
					c5.522-11.453,11.306-44.116,11.306-44.116s15.001,22.949,35.786,20.807c4.112-0.424,15.907-16.353,11.877-20.171
					c-3.548-3.361-5.365-5.764-7.635-12.868c-5.395-16.883-22.871-39.125-22.871-39.125c1.238-3.452-2.387-2.787-2.387-2.787
					s-93.621,33.782-100.92-30.907c-0.698-6.185-7.384-4.988-8.715-7.848c-2.146-4.612-1.799-8.06-13.201-15.483
					c-11.402-7.423-23.704-13.874-27.521-19.345C283.245,187.814,282.983,196.377,282.983,196.377z"/>
				<g>
					<path style="fill:#F24052;" d="M388.652,327.499l-42.424,7.569c-7.485,1.335-14.636-3.65-15.971-11.135l-7.569-42.424
						c-1.336-7.485,3.65-14.636,11.135-15.971l42.424-7.569c7.485-1.336,14.636,3.65,15.971,11.135l7.569,42.424
						C401.122,319.013,396.137,326.163,388.652,327.499z"/>
					<path style="fill:#00000000;" d="M367.843,280.877c-6.83,0.195-8.35,5.867-8.35,5.867s-3.584-4.761-9.864-2.617
						c-7.263,2.479-5.811,11.117-3.054,15.832c4.204,7.19,17.186,10.702,17.186,10.702l-0.001-0.005l0.001,0.005
						c0,0,10.965-7.785,12.424-15.985C377.14,289.298,375.513,280.657,367.843,280.877z"/>
					<polygon style="fill:#F24052;" points="360.09,329.482 370.063,345.987 373.713,327.051 					"/>
				</g>
				<g>
					<g>
						<path style="fill:#2279AF;" d="M292.97,322.534l-14.322-1.042c-3.894-0.283-7.28,2.644-7.563,6.538l-1.042,14.322
							c-0.283,3.894,2.644,7.28,6.538,7.563l4.851,0.353l1.873,6.179l2.747-5.843l4.851,0.353c3.894,0.283,7.28-2.644,7.563-6.538
							l1.042-14.322C299.791,326.203,296.864,322.817,292.97,322.534z"/>
						<g>
							<path style="fill:#00000000;" d="M290.835,338.707c0.494-0.192,0.861-0.65,0.902-1.213c0.048-0.663-0.371-1.249-0.976-1.445
								c0.436-0.244,0.734-0.712,0.725-1.261c-0.012-0.745-0.641-1.335-1.384-1.389l-5.388-0.392c0,0,1.179-3.69,0.661-4.928
								c-0.518-1.238-1.396-0.926-1.396-0.926s0.405,1.521-2.125,5.178c-0.515,0.745-1.294,1.564-1.36,2.467l-0.4,5.499
								c-0.104,1.427,0.969,2.667,2.396,2.771l4.745,0.345l1.63,0.119l0.041,0.003c0.785,0.057,1.553-0.531,1.602-1.317
								c0.02-0.325-0.076-0.628-0.246-0.878c0.68-0.059,1.238-0.599,1.289-1.302C291.594,339.475,291.296,338.968,290.835,338.707z"
								/>
							<path style="fill:#00000000;" d="M278.696,341.89l-0.487-0.035c-0.493-0.036-0.864-0.465-0.828-0.958l0.48-6.606
								c0.036-0.493,0.464-0.863,0.957-0.828l0.487,0.035c0.493,0.036,0.864,0.465,0.828,0.957l-0.48,6.606
								C279.618,341.555,279.189,341.926,278.696,341.89z"/>
						</g>
					</g>
					<g>
						<path style="fill:#D12A42;" d="M303.472,328.553l-12.392,3.173c-3.369,0.863-5.401,4.293-4.538,7.663l3.173,12.392
							c0.863,3.369,4.293,5.401,7.662,4.538l4.197-1.075l3.331,4.689l0.667-5.712l4.197-1.075c3.369-0.863,5.401-4.293,4.538-7.663
							l-3.173-12.392C310.271,329.722,306.841,327.69,303.472,328.553z"/>
						<path style="fill:#00000000;" d="M302.376,336.653c-2.443,0.252-2.837,2.325-2.837,2.325s-1.411-1.611-3.605-0.676
							c-2.537,1.082-1.787,4.139-0.673,5.756c1.698,2.465,6.445,3.379,6.445,3.379l0-0.002l0,0.002c0,0,3.723-3.082,4.028-6.061
							C305.932,339.424,305.12,336.37,302.376,336.653z"/>
					</g>
					<g>
						<path style="fill:#D12A42;" d="M256.996,339.158l-12.392,3.173c-3.369,0.863-5.401,4.293-4.538,7.662l3.173,12.392
							c0.863,3.369,4.293,5.401,7.662,4.538l4.197-1.075l3.331,4.689l0.667-5.712l4.197-1.075c3.369-0.863,5.401-4.293,4.538-7.663
							l-3.173-12.392C263.796,340.328,260.366,338.296,256.996,339.158z"/>
						<path style="fill:#00000000;" d="M255.901,347.259c-2.443,0.252-2.837,2.325-2.837,2.325s-1.411-1.611-3.605-0.676
							c-2.538,1.082-1.787,4.139-0.673,5.756c1.698,2.465,6.445,3.379,6.445,3.379l-0.001-0.002l0.001,0.002
							c0,0,3.723-3.082,4.028-6.061C259.457,350.03,258.645,346.976,255.901,347.259z"/>
					</g>
					<g>
						<path style="fill:#F24052;" d="M282.423,330.548h-20.772c-5.647,0-10.226,4.578-10.226,10.226v20.772
							c0,5.647,4.578,10.226,10.226,10.226h7.035l3.351,8.718l3.351-8.718h7.035c5.647,0,10.226-4.578,10.226-10.226v-20.772
							C292.649,335.126,288.071,330.548,282.423,330.548z"/>
						<path style="fill:#00000000;" d="M277.436,342.849c-3.944-0.588-5.4,2.515-5.4,2.515s-1.571-3.103-5.4-2.515
							c-4.427,0.68-4.479,5.792-3.378,8.784c1.679,4.562,8.777,7.911,8.777,7.911v-0.003v0.003c0,0,7.099-3.349,8.778-7.911
							C281.915,348.641,281.867,343.509,277.436,342.849z"/>
					</g>
					<g>
						<path style="fill:#2279AF;" d="M307.311,348.829l-17.224-6.098c-4.683-1.658-9.823,0.795-11.481,5.477l-6.098,17.224
							c-1.658,4.683,0.794,9.823,5.477,11.481l5.834,2.065l0.219,8.212l5.337-6.245l5.834,2.065
							c4.683,1.658,9.823-0.794,11.481-5.477l6.097-17.224C314.447,355.627,311.994,350.487,307.311,348.829z"/>
						<g>
							<path style="fill:#00000000;" d="M299.249,367.957c0.671-0.069,1.276-0.507,1.516-1.185c0.282-0.797-0.035-1.657-0.712-2.101
								c0.617-0.153,1.14-0.626,1.314-1.303c0.236-0.918-0.337-1.854-1.23-2.17l-6.48-2.294c0,0,2.688-4.132,2.47-5.825
								c-0.219-1.694-1.401-1.606-1.401-1.606s-0.015,2.003-4.35,5.639c-0.883,0.74-2.114,1.484-2.499,2.57l-2.341,6.613
								c-0.607,1.716,0.291,3.599,2.007,4.207l5.707,2.02l1.961,0.694l0.049,0.017c0.944,0.334,2.085-0.129,2.409-1.077
								c0.134-0.392,0.118-0.796-0.007-1.16c0.854,0.157,1.72-0.319,2.02-1.164C299.922,369.154,299.727,368.432,299.249,367.957z"
								/>
							<path style="fill:#00000000;" d="M283.282,367.778l-0.585-0.207c-0.593-0.21-0.903-0.861-0.693-1.453l2.812-7.945
								c0.21-0.593,0.861-0.903,1.453-0.693l0.585,0.207c0.593,0.21,0.903,0.861,0.693,1.453l-2.813,7.944
								C284.526,367.677,283.875,367.988,283.282,367.778z"/>
						</g>
					</g>
					<g>
						<path style="fill:#156B96;" d="M262.185,354.38H250.31c-3.229,0-5.846,2.617-5.846,5.846v11.875
							c0,3.229,2.617,5.846,5.846,5.846h4.022l1.915,4.984l1.915-4.984h4.022c3.229,0,5.846-2.617,5.846-5.846v-11.875
							C268.031,356.997,265.413,354.38,262.185,354.38z"/>
						<g>
							<path style="fill:#00000000;" d="M261.394,367.848c0.396-0.188,0.672-0.587,0.672-1.055c0-0.55-0.381-1.008-0.892-1.133
								c0.345-0.227,0.563-0.631,0.522-1.083c-0.055-0.613-0.609-1.063-1.225-1.063h-4.467c0,0,0.751-3.114,0.25-4.105
								c-0.501-0.99-1.207-0.68-1.207-0.68s0.425,1.23-1.442,4.398c-0.38,0.645-0.974,1.368-0.974,2.116v4.56
								c0,1.183,0.959,2.142,2.142,2.142h3.935h1.352h0.034c0.651,0,1.249-0.531,1.242-1.182c-0.003-0.269-0.1-0.513-0.256-0.709
								c0.558-0.089,0.985-0.568,0.985-1.151C262.065,368.435,261.79,368.035,261.394,367.848z"/>
							<path style="fill:#00000000;" d="M251.573,371.201h-0.403c-0.409,0-0.74-0.331-0.74-0.74v-5.477c0-0.409,0.331-0.74,0.74-0.74
								h0.403c0.409,0,0.74,0.331,0.74,0.74v5.477C252.313,370.869,251.981,371.201,251.573,371.201z"/>
						</g>
					</g>
				</g>
				<path style="fill:#FF9E3E;" d="M327.785,228.112c-17.392,10.229-77.839,86.854-89.929,140.461l5.727,6.938
					C276.67,286.017,327.785,228.112,327.785,228.112z"/>
				<path style="fill:#FF9E3E;" d="M314.326,368.681c-4.683,19.458-9.366,34.945-13.26,39.717
					c-13.158,16.111-59.811,34.78-67.446,16.111c-7.636-18.656,4.238-55.93,4.238-55.93S256.373,383.15,314.326,368.681z"/>
				<g>
					<path style="fill:#2279AF;" d="M460.784,288.265l-14.006-10.667c-3.808-2.9-8.899-0.306-11.372,5.795l-9.095,22.437
						c-2.473,6.1-1.39,13.396,2.417,16.296l4.744,3.613l-1.558,11.137l6.076-7.696l4.744,3.613c3.808,2.9,8.899,0.306,11.372-5.795
						l9.095-22.437C465.674,298.461,464.591,291.165,460.784,288.265z"/>
					<g>
						<path style="fill:#00000000;" d="M449.536,313.001c0.611,0.001,1.242-0.507,1.6-1.389c0.421-1.039,0.323-2.246-0.184-2.942
							c0.581-0.12,1.147-0.687,1.446-1.577c0.405-1.208,0.096-2.555-0.63-3.108l-5.269-4.013c0,0,3.271-5.21,3.438-7.531
							c0.167-2.321-0.902-2.369-0.902-2.369s-0.441,2.707-5.069,7.015c-0.942,0.877-2.196,1.71-2.769,3.125l-3.492,8.615
							c-0.906,2.235-0.509,4.908,0.886,5.971l4.641,3.534l1.594,1.214l0.04,0.031c0.768,0.585,1.88,0.118,2.371-1.119
							c0.202-0.511,0.274-1.06,0.242-1.57c0.726,0.332,1.597-0.189,2.043-1.29C449.878,314.714,449.859,313.711,449.536,313.001z"/>
						<path style="fill:#00000000;" d="M436.899,309.597c-0.354,0.874-1.084,1.246-1.63,0.83l-0.592-0.451
							c-0.391-0.298-0.482-0.882-0.233-1.497l4.278-10.555c0.354-0.874,1.084-1.246,1.63-0.83l0.592,0.451
							c0.391,0.298,0.482,0.882,0.233,1.497L436.899,309.597z"/>
					</g>
				</g>
				<path style="fill:#FF8B66;" d="M469.749,325.042c-11.59-12.055-49.955-33.595-69.476-39.026l-3.656,9.204
					c0,0,39.692,27.493,49.725,40.06c10.033,12.567,21.165,16.954,30.658,11.281C486.493,340.888,472.188,327.579,469.749,325.042z"
					/>
				<g>
					<path style="fill:#FF8B66;" d="M382.416,278.118c9.12,8.594,17.99,2.747,22.374,12.42c2.715,5.99-3.778,9.888-3.778,9.888
						c-7.076-0.052-17.833,2.744-22.757,4.526c-4.934,1.759-3.811-0.661-3.811-0.661c-0.443,0.201-0.852,0.414-1.261,0.628
						c-3.129,1.587-5.196,3.226-4.772,0.505c0.461-3.075,9.134-7.989,9.134-7.989c-14.079,4.021-14.717,7.822-14.587,5.01
						c0.169-3.842,11.813-9.147,12.162-9.305c-8.809,0.959-12.884,3.62-11.929,1.08c0.969-2.574,16.251-6.297,21.9-7.594
						c1.271-0.295,2.068-0.459,2.068-0.459C379.265,279.659,382.416,278.118,382.416,278.118z"/>
					<path style="fill:#EF6E4B;" d="M383.642,299.42c-1.151,0.437-7.771,2.876-9.199,4.871c-0.443,0.201-0.852,0.414-1.261,0.628
						C372.596,302.263,382.174,299.776,383.642,299.42z"/>
				</g>
			</g>
		</g>
	</g>
</g>
</svg>
